# xmcd
#
# Track frame offsets:
#	150
#	58439
#	90328
#	138570
#	161515
#	168329
#	171178
#	177202
#	194096
#	202876
#	211600
#	224089
#
# Disc length: 3131 seconds
#
# Revision: 1
# Processed by: cddbd v1.5.1PL2 Copyright (c) Steve Scherf et al.
# Submitted via: audiograbber 1.83.01
#
DISCID=b10c390c
DTITLE=Bruce Springsteen - Bruce Springsteen-I Don´t Wanna Go Home Vol.ii
DYEAR=1900
DGENRE=
TTITLE0=Rosalita(Come Out Tonight)
TTITLE1=Jersey Girl
TTITLE2=Jungleland
TTITLE3=Born To Run
TTITLE4=Devil With The Blue Dress Medley
TTITLE5=Good Golly Miss Molly
TTITLE6=Cc Rider
TTITLE7=Jenny Take A Ride
TTITLE8=You Can´t  Sit Down
TTITLE9=Sweet Soul Music
TTITLE10=Shake
TTITLE11=Twist And Shout
EXTD=
EXTT0=
EXTT1=
EXTT2=
EXTT3=
EXTT4=
EXTT5=
EXTT6=
EXTT7=
EXTT8=
EXTT9=
EXTT10=
EXTT11=
PLAYORDER=
